<?xml version="1.0" encoding="utf-8"?>
<!-- Generator: Adobe Adobe Illustrator 24.2.0, SVG Export Plug-In . SVG Version: 6.00 Build 0)  -->
<svg version="1.1" id="Capa_1" xmlns="http://www.w3.org/2000/svg" xmlns:xlink="http://www.w3.org/1999/xlink" x="0px" y="0px"
	 width="800px" height="800px" viewBox="0 0 800 800" style="enable-background:new 0 0 800 800;" xml:space="preserve">
<g>
	<path d="M240.2,526.7H681c50,0,90.8-40.8,90.8-90.8V250.5c0-0.2,0-0.5,0-0.7c0-0.5,0-0.8,0-1.3c0-0.3,0-0.7-0.2-1
		c0-0.3-0.2-0.8-0.2-1.2s-0.2-0.7-0.2-1c-0.2-0.3-0.2-0.7-0.3-1.2c-0.2-0.3-0.2-0.7-0.3-1c-0.2-0.3-0.2-0.7-0.3-1s-0.3-0.7-0.5-1.2
		c-0.2-0.3-0.3-0.7-0.5-0.8c-0.2-0.3-0.3-0.7-0.5-1s-0.3-0.5-0.5-0.8c-0.2-0.3-0.5-0.7-0.7-1c-0.2-0.3-0.3-0.5-0.7-0.8
		c-0.2-0.3-0.5-0.5-0.7-0.8s-0.5-0.5-0.7-0.8s-0.5-0.5-0.7-0.7c-0.3-0.3-0.5-0.5-0.8-0.8c-0.3-0.2-0.5-0.5-0.8-0.7
		c-0.3-0.2-0.7-0.5-1-0.7c-0.3-0.2-0.5-0.3-0.8-0.5s-0.7-0.3-1-0.7c-0.3-0.2-0.7-0.3-1-0.5s-0.7-0.3-1-0.5s-0.7-0.3-1-0.5
		s-0.7-0.2-1-0.3c-0.3-0.2-0.8-0.3-1.2-0.3s-0.7-0.2-0.8-0.2c-0.5-0.2-0.8-0.2-1.3-0.2c-0.2,0-0.3-0.2-0.7-0.2L194,151.4V73.4
		c0-0.8,0-1.6-0.2-2.3c0-0.2,0-0.3-0.2-0.7c0-0.5-0.2-1-0.2-1.5c-0.2-0.5-0.2-0.8-0.3-1.3c0-0.3-0.2-0.5-0.2-0.8
		c-0.2-0.5-0.3-1-0.5-1.5c0-0.2-0.2-0.5-0.2-0.7c-0.2-0.5-0.3-0.8-0.7-1.3c-0.2-0.2-0.2-0.5-0.3-0.7c-0.2-0.3-0.3-0.7-0.7-1
		c-0.2-0.3-0.3-0.5-0.5-0.8s-0.3-0.5-0.5-0.8s-0.5-0.7-0.7-1c-0.2-0.2-0.3-0.3-0.5-0.5c-0.3-0.3-0.7-0.7-1-1
		c-0.2-0.2-0.3-0.3-0.5-0.5c-0.3-0.3-0.7-0.7-1.2-1c-0.2-0.2-0.5-0.3-0.7-0.5c-0.3-0.3-0.7-0.5-1-0.8c-0.5-0.3-1-0.7-1.3-0.8
		c-0.2-0.2-0.3-0.2-0.5-0.3c-0.7-0.3-1.5-0.7-2.1-1L59.1,1.8C47.8-3,34.8,2.3,30,13.6s0.5,24.3,11.8,29.1l107.5,45.4v100.6v15.9V327
		v109.3v138.1c0,46,34.5,84.2,79.1,89.9c-8.1,13.5-12.8,29.3-12.8,46c0,49.5,40.3,89.6,89.6,89.6s89.6-40.3,89.6-89.6
		c0-16.4-4.4-32.1-12.3-45.2h199.6c-7.9,13.3-12.3,28.8-12.3,45.2c0,49.5,40.3,89.6,89.6,89.6c49.3,0,89.6-40.3,89.6-89.6
		c0-49.3-40.3-89.6-89.6-89.6H240.2c-25.6,0-46.4-20.9-46.4-46.4v-60.2C207.3,522.1,223.2,526.7,240.2,526.7z M350.6,710.2
		c0,25-20.4,45.2-45.2,45.2c-24.8,0-45.2-20.4-45.2-45.2s20.4-45.2,45.2-45.2C330.3,665,350.6,685.2,350.6,710.2z M704.8,710.2
		c0,25-20.4,45.2-45.2,45.2s-45.2-20.4-45.2-45.2s20.4-45.2,45.2-45.2S704.8,685.2,704.8,710.2z M681,482.3H240.2
		c-25.6,0-46.4-20.9-46.4-46.4V326.6V204.3v-8.2l533.5,73.5v166.2C727.3,461.6,706.4,482.3,681,482.3z"/>
</g>
</svg>
